<svg xmlns="http://www.w3.org/2000/svg" xmlns:xlink="http://www.w3.org/1999/xlink" width="500" zoomAndPan="magnify" viewBox="0 0 375 374.999991" height="500" preserveAspectRatio="xMidYMid meet" version="1.0"><defs><g/><clipPath id="9af7ab7808"><path d="M 47.300781 47.917969 L 297.800781 47.917969 L 297.800781 273.667969 L 47.300781 273.667969 Z M 47.300781 47.917969 " clip-rule="nonzero"/></clipPath></defs><g clip-path="url(#9af7ab7808)"><path fill="#234143" d="M 89.050781 127.738281 L 139.4375 77.433594 L 247.398438 77.433594 L 259.621094 47.953125 L 127.214844 47.953125 C 100.574219 74.546875 73.9375 101.144531 47.300781 127.738281 C 96.015625 176.375 144.710938 224.996094 193.425781 273.632812 C 228.210938 238.902344 263.015625 204.171875 297.800781 169.421875 C 276.925781 148.582031 256.050781 127.738281 235.175781 106.898438 L 151.675781 106.898438 L 130.800781 127.738281 C 151.675781 148.582031 172.550781 169.421875 193.425781 190.265625 L 214.300781 169.421875 L 181.203125 136.378906 L 222.953125 136.378906 L 256.050781 169.421875 C 235.175781 190.265625 214.300781 211.105469 193.425781 231.949219 C 158.640625 197.21875 123.851562 162.488281 89.050781 127.738281 Z M 89.050781 127.738281 " fill-opacity="1" fill-rule="evenodd"/></g><g fill="#234143" fill-opacity="1"><g transform="translate(50.874907, 333.910641)"><g><path d="M 34.84375 -19.96875 L 34.84375 -12.234375 C 33.925781 -7.992188 31.910156 -4.785156 28.796875 -2.609375 C 25.679688 -0.429688 22.207031 0.65625 18.375 0.65625 C 13.5625 0.65625 9.460938 -1.144531 6.078125 -4.75 C 2.691406 -8.351562 1 -12.707031 1 -17.8125 C 1 -23 2.65625 -27.378906 5.96875 -30.953125 C 9.28125 -34.523438 13.414062 -36.3125 18.375 -36.3125 C 24.164062 -36.3125 28.75 -34.28125 32.125 -30.21875 L 26.8125 -24.390625 C 24.90625 -27.441406 22.25 -28.96875 18.84375 -28.96875 C 16.34375 -28.96875 14.203125 -27.878906 12.421875 -25.703125 C 10.648438 -23.523438 9.765625 -20.894531 9.765625 -17.8125 C 9.765625 -14.78125 10.648438 -12.191406 12.421875 -10.046875 C 14.203125 -7.898438 16.34375 -6.828125 18.84375 -6.828125 C 20.925781 -6.828125 22.738281 -7.453125 24.28125 -8.703125 C 25.820312 -9.960938 26.59375 -11.628906 26.59375 -13.703125 L 18.375 -13.703125 L 18.375 -19.96875 Z M 34.84375 -19.96875 "/></g></g></g><g fill="#234143" fill-opacity="1"><g transform="translate(104.874932, 333.910641)"><g><path d="M 30 -35.671875 L 30 -12.671875 C 30 -8.285156 28.816406 -4.96875 26.453125 -2.71875 C 24.097656 -0.46875 20.640625 0.65625 16.078125 0.65625 C 11.523438 0.65625 8.066406 -0.46875 5.703125 -2.71875 C 3.335938 -4.96875 2.15625 -8.285156 2.15625 -12.671875 L 2.15625 -35.671875 L 10.296875 -35.671875 L 10.296875 -15.046875 C 10.296875 -12.160156 10.75 -10.15625 11.65625 -9.03125 C 12.5625 -7.90625 14.035156 -7.34375 16.078125 -7.34375 C 18.128906 -7.34375 19.609375 -7.90625 20.515625 -9.03125 C 21.421875 -10.15625 21.875 -12.160156 21.875 -15.046875 L 21.875 -35.671875 Z M 30 -35.671875 "/></g></g></g><g fill="#234143" fill-opacity="1"><g transform="translate(155.200374, 333.910641)"><g><path d="M 15.734375 -36.3125 C 17.671875 -36.3125 19.5625 -36.03125 21.40625 -35.46875 C 23.25 -34.90625 24.617188 -34.351562 25.515625 -33.8125 L 26.8125 -32.9375 L 23.515625 -26.453125 C 23.253906 -26.628906 22.894531 -26.851562 22.4375 -27.125 C 21.976562 -27.40625 21.113281 -27.773438 19.84375 -28.234375 C 18.570312 -28.691406 17.390625 -28.921875 16.296875 -28.921875 C 14.941406 -28.921875 13.894531 -28.628906 13.15625 -28.046875 C 12.425781 -27.472656 12.0625 -26.695312 12.0625 -25.71875 C 12.0625 -25.226562 12.234375 -24.773438 12.578125 -24.359375 C 12.921875 -23.941406 13.507812 -23.492188 14.34375 -23.015625 C 15.1875 -22.546875 15.925781 -22.164062 16.5625 -21.875 C 17.195312 -21.582031 18.175781 -21.148438 19.5 -20.578125 C 21.800781 -19.597656 23.765625 -18.265625 25.390625 -16.578125 C 27.023438 -14.890625 27.84375 -12.984375 27.84375 -10.859375 C 27.84375 -8.804688 27.472656 -7.015625 26.734375 -5.484375 C 26.003906 -3.960938 25 -2.769531 23.71875 -1.90625 C 22.4375 -1.039062 21.015625 -0.398438 19.453125 0.015625 C 17.898438 0.441406 16.210938 0.65625 14.390625 0.65625 C 12.835938 0.65625 11.3125 0.492188 9.8125 0.171875 C 8.3125 -0.140625 7.054688 -0.535156 6.046875 -1.015625 C 5.046875 -1.492188 4.140625 -1.960938 3.328125 -2.421875 C 2.523438 -2.878906 1.9375 -3.269531 1.5625 -3.59375 L 1 -4.0625 L 5.0625 -10.890625 C 5.40625 -10.609375 5.878906 -10.242188 6.484375 -9.796875 C 7.085938 -9.347656 8.160156 -8.75 9.703125 -8 C 11.242188 -7.25 12.609375 -6.875 13.796875 -6.875 C 17.222656 -6.875 18.9375 -8.039062 18.9375 -10.375 C 18.9375 -10.863281 18.8125 -11.316406 18.5625 -11.734375 C 18.320312 -12.148438 17.890625 -12.566406 17.265625 -12.984375 C 16.648438 -13.410156 16.101562 -13.742188 15.625 -13.984375 C 15.15625 -14.234375 14.378906 -14.609375 13.296875 -15.109375 C 12.210938 -15.609375 11.410156 -15.988281 10.890625 -16.25 C 8.734375 -17.320312 7.0625 -18.65625 5.875 -20.25 C 4.695312 -21.851562 4.109375 -23.578125 4.109375 -25.421875 C 4.109375 -28.617188 5.289062 -31.234375 7.65625 -33.265625 C 10.019531 -35.296875 12.710938 -36.3125 15.734375 -36.3125 Z M 15.734375 -36.3125 "/></g></g></g><g fill="#234143" fill-opacity="1"><g transform="translate(202.413235, 333.910641)"><g><path d="M 2.59375 -35.671875 L 15.609375 -35.671875 C 19.242188 -35.671875 22.179688 -34.734375 24.421875 -32.859375 C 26.671875 -30.984375 27.796875 -28.257812 27.796875 -24.6875 C 27.796875 -21.113281 26.65625 -18.3125 24.375 -16.28125 C 22.101562 -14.25 19.179688 -13.234375 15.609375 -13.234375 L 10.71875 -13.234375 L 10.71875 0 L 2.59375 0 Z M 10.71875 -19.71875 L 13.015625 -19.71875 C 14.828125 -19.71875 16.316406 -20.082031 17.484375 -20.8125 C 18.648438 -21.550781 19.234375 -22.753906 19.234375 -24.421875 C 19.234375 -26.128906 18.648438 -27.347656 17.484375 -28.078125 C 16.316406 -28.816406 14.828125 -29.1875 13.015625 -29.1875 L 10.71875 -29.1875 Z M 10.71875 -19.71875 "/></g></g></g><g fill="#234143" fill-opacity="1"><g transform="translate(249.366716, 333.910641)"><g><path d="M 2.59375 -35.671875 L 15.34375 -35.671875 C 18.78125 -35.671875 21.578125 -34.753906 23.734375 -32.921875 C 25.898438 -31.085938 26.984375 -28.472656 26.984375 -25.078125 C 26.984375 -22.453125 26.328125 -20.253906 25.015625 -18.484375 C 23.703125 -16.710938 21.921875 -15.46875 19.671875 -14.75 L 31.953125 0 L 21.609375 0 L 10.71875 -14.09375 L 10.71875 0 L 2.59375 0 Z M 10.71875 -19.84375 L 11.671875 -19.84375 C 12.421875 -19.84375 13.054688 -19.859375 13.578125 -19.890625 C 14.097656 -19.921875 14.6875 -20.019531 15.34375 -20.1875 C 16.007812 -20.363281 16.539062 -20.609375 16.9375 -20.921875 C 17.34375 -21.242188 17.691406 -21.707031 17.984375 -22.3125 C 18.273438 -22.914062 18.421875 -23.648438 18.421875 -24.515625 C 18.421875 -25.378906 18.273438 -26.113281 17.984375 -26.71875 C 17.691406 -27.320312 17.34375 -27.78125 16.9375 -28.09375 C 16.539062 -28.414062 16.007812 -28.660156 15.34375 -28.828125 C 14.6875 -29.003906 14.097656 -29.109375 13.578125 -29.140625 C 13.054688 -29.171875 12.421875 -29.1875 11.671875 -29.1875 L 10.71875 -29.1875 Z M 10.71875 -19.84375 "/></g></g></g><g fill="#234143" fill-opacity="1"><g transform="translate(298.48171, 333.910641)"><g><path d="M 10.71875 -35.671875 L 10.71875 0 L 2.59375 0 L 2.59375 -35.671875 Z M 10.71875 -35.671875 "/></g></g></g></svg>